<svg xmlns="http://www.w3.org/2000/svg" viewBox="0 0 133 164" fill="none" role="img" aria-label="Maylon">
  <!-- anel externo, aberto na base -->
  <path d="M109.7 100A55 55 0 1 0 20.3 100" stroke="currentColor" stroke-width="16" stroke-linecap="round"/>
  <!-- M -->
  <path d="M42 89V51l22.5 33L87 55v34" stroke="currentColor" stroke-width="14" stroke-linejoin="miter" stroke-linecap="butt"/>
  <!-- ondas de sinal -->
  <path d="M30.5 126a45 45 0 0 1 69 0" stroke="currentColor" stroke-width="15" stroke-linecap="round"/>
  <path d="M47 139a22 22 0 0 1 36 0" stroke="currentColor" stroke-width="15" stroke-linecap="round"/>
  <!-- pino sobre o braço direito do M -->
  <circle cx="86" cy="48" r="16" fill="#fff"/>
  <path d="M86 35a12 12 0 0 0-12 12c0 8.7 12 17.5 12 17.5S98 55.7 98 47a12 12 0 0 0-12-12Z" fill="currentColor"/>
  <circle cx="86" cy="45.5" r="4.6" fill="#fff"/>
  <!-- ponto das ondas -->
  <path d="M65 143a8 8 0 0 1 8 8c0 5.8-8 12-8 12s-8-6.2-8-12a8 8 0 0 1 8-8Z" fill="currentColor"/>
</svg>
